<svg width="25" height="24" viewBox="0 0 25 24" fill="none" xmlns="http://www.w3.org/2000/svg">
<path fill-rule="evenodd" clip-rule="evenodd" d="M5.20711 3.29289C4.81658 2.90237 4.18342 2.90237 3.79289 3.29289C3.40237 3.68342 3.40237 4.31658 3.79289 4.70711L6.21706 7.13127C4.78639 8.20737 3.53925 9.68543 2.60557 11.5528C2.46481 11.8343 2.46481 12.1657 2.60557 12.4472C4.76379 16.7637 8.59687 19 12.5 19C14.0552 19 15.5992 18.645 17.0306 17.9448L19.7929 20.7071C20.1834 21.0976 20.8166 21.0976 21.2071 20.7071C21.5976 20.3166 21.5976 19.6834 21.2071 19.2929L5.20711 3.29289ZM15.5138 16.428L13.7934 14.7076C13.4018 14.8951 12.9631 15 12.5 15C10.8431 15 9.5 13.6569 9.5 12C9.5 11.5369 9.60495 11.0982 9.79237 10.7066L7.64838 8.56259C6.48778 9.3794 5.44721 10.5214 4.62966 12C6.49806 15.3792 9.53121 17 12.5 17C13.5134 17 14.5343 16.8112 15.5138 16.428Z" fill="#747488"/>
<path d="M19.0523 13.8955C19.5353 13.3402 19.9784 12.7088 20.3703 12C18.5019 8.62078 15.4687 7 12.5 7C12.388 7 12.2759 7.00231 12.1637 7.00693L10.3794 5.22258C11.0774 5.07451 11.7875 5 12.5 5C16.4031 5 20.2362 7.23635 22.3944 11.5528C22.5352 11.8343 22.5352 12.1657 22.3944 12.4472C21.8504 13.5352 21.2 14.491 20.4689 15.3121L19.0523 13.8955Z" fill="#747488"/>
</svg>
